<?xml version="1.0" encoding="UTF-8" standalone="no"?>
<svg width="600" height="400" viewBox="0 0 600 400" fill="none" xmlns="http://www.w3.org/2000/svg">
  <!-- Background -->
  <rect width="600" height="400" rx="8" fill="#1E293B" />
  
  <!-- Header -->
  <rect x="20" y="20" width="560" height="50" rx="4" fill="#0F172A" />
  <rect x="40" y="35" width="120" height="20" rx="2" fill="#334155" />
  <circle cx="560" cy="45" r="15" fill="#0EA5E9" />
  
  <!-- Sidebar -->
  <rect x="20" y="80" width="150" height="300" rx="4" fill="#0F172A" />
  <rect x="40" y="100" width="110" height="10" rx="2" fill="#334155" />
  <rect x="40" y="120" width="110" height="10" rx="2" fill="#334155" />
  <rect x="40" y="140" width="110" height="10" rx="2" fill="#334155" />
  <rect x="40" y="160" width="110" height="10" rx="2" fill="#334155" />
  <rect x="40" y="180" width="110" height="10" rx="2" fill="#334155" />
  
  <!-- Content area - Project cards -->
  <rect x="190" y="80" width="180" height="140" rx="4" fill="#0F172A" />
  <rect x="200" y="95" width="160" height="15" rx="2" fill="#334155" />
  <rect x="200" y="120" width="160" height="10" rx="2" fill="#334155" />
  <rect x="200" y="140" width="100" height="10" rx="2" fill="#334155" />
  <rect x="200" y="160" width="70" height="25" rx="4" fill="#0EA5E9" />
  <rect x="200" y="195" width="160" height="5" rx="2" fill="#334155" />
  <rect x="200" y="205" width="160" height="5" rx="2" fill="#334155" />
  
  <rect x="390" y="80" width="180" height="140" rx="4" fill="#0F172A" />
  <rect x="400" y="95" width="160" height="15" rx="2" fill="#334155" />
  <rect x="400" y="120" width="160" height="10" rx="2" fill="#334155" />
  <rect x="400" y="140" width="100" height="10" rx="2" fill="#334155" />
  <rect x="400" y="160" width="70" height="25" rx="4" fill="#0EA5E9" />
  <rect x="400" y="195" width="160" height="5" rx="2" fill="#334155" />
  <rect x="400" y="205" width="160" height="5" rx="2" fill="#334155" />
  
  <!-- Content area - Chart -->
  <rect x="190" y="240" width="380" height="140" rx="4" fill="#0F172A" />
  <rect x="200" y="255" width="160" height="15" rx="2" fill="#334155" />
  
  <!-- Chart bars -->
  <rect x="220" y="290" width="30" height="60" rx="2" fill="#0EA5E9" />
  <rect x="270" y="310" width="30" height="40" rx="2" fill="#0EA5E9" />
  <rect x="320" y="280" width="30" height="70" rx="2" fill="#0EA5E9" />
  <rect x="370" y="330" width="30" height="20" rx="2" fill="#0EA5E9" />
  <rect x="420" y="270" width="30" height="80" rx="2" fill="#0EA5E9" />
  <rect x="470" y="300" width="30" height="50" rx="2" fill="#0EA5E9" />
  
  <!-- LaunchRocket text -->
  <text x="300" y="200" font-family="Arial" font-size="24" font-weight="bold" text-anchor="middle" fill="#0EA5E9">LaunchRocket Dashboard</text>
</svg>