<?xml version="1.0" encoding="UTF-8"?>
<svg width="512" height="512" viewBox="0 0 512 512" fill="none" xmlns="http://www.w3.org/2000/svg">
  <rect width="512" height="512" rx="100" fill="url(#bg-gradient)"/>
  <g filter="url(#glow)">
    <path d="M374 138C374 138 314 158 274 198C234 238 212 304 212 304L232 324C232 324 298 302 338 262C378 222 398 162 398 162L374 138Z" fill="url(#rocket-gradient)"/>
    <path d="M374 138C374 138 314 158 274 198C234 238 212 304 212 304L232 324C232 324 298 302 338 262C378 222 398 162 398 162L374 138Z" stroke="white" stroke-width="5" stroke-linecap="round" stroke-linejoin="round"/>
  </g>
  <path d="M280 192C286.627 192 292 186.627 292 180C292 173.373 286.627 168 280 168C273.373 168 268 173.373 268 180C268 186.627 273.373 192 280 192Z" fill="white"/>
  <g filter="url(#flame-glow)">
    <path d="M184 332L144 372L168 396C168 396 196 366 204 348C212 330 212 304 212 304C212 304 186 304 168 312C150 320 120 348 120 348L144 372L184 332Z" fill="url(#flame-gradient)"/>
  </g>
  <path d="M184 332L144 372L168 396C168 396 196 366 204 348C212 330 212 304 212 304C212 304 186 304 168 312C150 320 120 348 120 348L144 372L184 332Z" stroke="white" stroke-width="4" stroke-linecap="round" stroke-linejoin="round"/>
  <g filter="url(#star-glow)">
    <circle cx="320" cy="118" r="5" fill="white"/>
    <circle cx="380" cy="220" r="4" fill="white"/>
    <circle cx="420" cy="180" r="3" fill="white"/>
    <circle cx="120" cy="280" r="4" fill="white"/>
    <circle cx="176" cy="384" r="3" fill="white"/>
    <circle cx="300" cy="360" r="4" fill="white"/>
    <circle cx="250" cy="440" r="3" fill="white"/>
    <circle cx="190" cy="180" r="3" fill="white"/>
    <circle cx="280" cy="260" r="2" fill="white"/>
  </g>
  <defs>
    <filter id="glow" x="196" y="124" width="218" height="215" filterUnits="userSpaceOnUse" color-interpolation-filters="sRGB">
      <feFlood flood-opacity="0" result="BackgroundImageFix"/>
      <feColorMatrix in="SourceAlpha" type="matrix" values="0 0 0 0 0 0 0 0 0 0 0 0 0 0 0 0 0 0 127 0"/>
      <feOffset/>
      <feGaussianBlur stdDeviation="5"/>
      <feColorMatrix type="matrix" values="0 0 0 0 0.051 0 0 0 0 0.647 0 0 0 0 0.914 0 0 0 0.7 0"/>
      <feBlend mode="normal" in2="BackgroundImageFix" result="effect1_dropShadow"/>
      <feBlend mode="normal" in="SourceGraphic" in2="effect1_dropShadow" result="shape"/>
    </filter>
    <filter id="flame-glow" x="104" y="290" width="116" height="120" filterUnits="userSpaceOnUse" color-interpolation-filters="sRGB">
      <feFlood flood-opacity="0" result="BackgroundImageFix"/>
      <feColorMatrix in="SourceAlpha" type="matrix" values="0 0 0 0 0 0 0 0 0 0 0 0 0 0 0 0 0 0 127 0"/>
      <feOffset/>
      <feGaussianBlur stdDeviation="6"/>
      <feColorMatrix type="matrix" values="0 0 0 0 1 0 0 0 0 0.498 0 0 0 0 0.2 0 0 0 0.7 0"/>
      <feBlend mode="normal" in2="BackgroundImageFix" result="effect1_dropShadow"/>
      <feBlend mode="normal" in="SourceGraphic" in2="effect1_dropShadow" result="shape"/>
    </filter>
    <filter id="star-glow" x="110" y="110" width="320" height="340" filterUnits="userSpaceOnUse" color-interpolation-filters="sRGB">
      <feFlood flood-opacity="0" result="BackgroundImageFix"/>
      <feColorMatrix in="SourceAlpha" type="matrix" values="0 0 0 0 0 0 0 0 0 0 0 0 0 0 0 0 0 0 127 0"/>
      <feOffset/>
      <feGaussianBlur stdDeviation="2.5"/>
      <feColorMatrix type="matrix" values="0 0 0 0 1 0 0 0 0 1 0 0 0 0 1 0 0 0 0.7 0"/>
      <feBlend mode="normal" in2="BackgroundImageFix" result="effect1_dropShadow"/>
      <feBlend mode="normal" in="SourceGraphic" in2="effect1_dropShadow" result="shape"/>
    </filter>
    <linearGradient id="bg-gradient" x1="0" y1="0" x2="512" y2="512" gradientUnits="userSpaceOnUse">
      <stop offset="0" stop-color="#0e1225"/>
      <stop offset="1" stop-color="#1C223C"/>
    </linearGradient>
    <linearGradient id="rocket-gradient" x1="398" y1="162" x2="212" y2="304" gradientUnits="userSpaceOnUse">
      <stop offset="0" stop-color="#0EA5E9"/>
      <stop offset="1" stop-color="#4F46E5"/>
    </linearGradient>
    <linearGradient id="flame-gradient" x1="212" y1="304" x2="144" y2="372" gradientUnits="userSpaceOnUse">
      <stop offset="0" stop-color="#FF7F20"/>
      <stop offset="1" stop-color="#FFD700"/>
    </linearGradient>
  </defs>
</svg>